<svg width="389" height="389" viewBox="0 0 389 389" fill="none" xmlns="http://www.w3.org/2000/svg">
<g filter="url(#filter0_d_464_9)">
<rect width="381" height="381" transform="translate(4)" fill="black"/>
<path d="M271.918 245.789C271.918 257.02 266.254 262.977 256.195 262.977C246.137 262.977 240.57 257.02 240.57 245.789V199.5C240.57 187.977 234.906 181.434 225.336 181.434C215.668 181.434 209.516 188.758 209.516 200.379V245.789C209.516 257.02 204.34 262.977 194.574 262.977C184.711 262.977 179.535 257.02 179.535 245.789V199.695C179.535 188.27 173.676 181.434 164.105 181.434C154.535 181.434 148.48 188.66 148.48 200.379V245.789C148.48 257.02 142.914 262.977 132.855 262.977C122.797 262.977 117.133 257.02 117.133 245.789V173.523C117.133 163.172 122.992 156.824 132.465 156.824C141.449 156.824 147.113 162.684 147.602 172.547V175.477H149.164C152.387 163.758 163.617 156.141 177.777 156.141C192.523 156.141 202.973 163.562 206.293 175.867H207.758C211.762 163.953 223.676 156.141 238.812 156.141C259.32 156.141 271.918 168.836 271.918 189.637V245.789Z" fill="white"/>
</g>
<defs>
<filter id="filter0_d_464_9" x="0" y="0" width="389" height="389" filterUnits="userSpaceOnUse" color-interpolation-filters="sRGB">
<feFlood flood-opacity="0" result="BackgroundImageFix"/>
<feColorMatrix in="SourceAlpha" type="matrix" values="0 0 0 0 0 0 0 0 0 0 0 0 0 0 0 0 0 0 127 0" result="hardAlpha"/>
<feOffset dy="4"/>
<feGaussianBlur stdDeviation="2"/>
<feComposite in2="hardAlpha" operator="out"/>
<feColorMatrix type="matrix" values="0 0 0 0 0 0 0 0 0 0 0 0 0 0 0 0 0 0 0.25 0"/>
<feBlend mode="normal" in2="BackgroundImageFix" result="effect1_dropShadow_464_9"/>
<feBlend mode="normal" in="SourceGraphic" in2="effect1_dropShadow_464_9" result="shape"/>
</filter>
</defs>
</svg>
